#!OML:ASF F:\twosubjects\two\Thursday\Session 1\justin.ASF
:FULLY-SPECIFIED
:DEGREES
303
root 21.3673 18.5666 5.06537 -112.259 -88.0715 127.431
lowerback 10.8794 1.23063 0.751049
upperback 5.83102 1.45779 2.90614
thorax -0.0799438 0.58763 2.43219
lowerneck -21.5481 -3.04562 -11.0534
upperneck 30.08 -2.53633 5.2287
head 14.1201 -1.79021 3.50865
rclavicle 1.82882e-014 1.82882e-014
rhumerus 26.5356 27.0279 -47.8387
rradius 72.1338
rwrist 24.0289
rhand -42.2106 39.3741
rfingers 7.12502
rthumb -15.0981 9.94475
lclavicle 1.82882e-014 1.82882e-014
lhumerus 32.6043 -29.8316 52.2408
lradius 62.2012
lwrist -34.7912
lhand -35.353 57.8742
lfingers 7.12502
lthumb -8.48549 87.6837
rfemur -29.8575 -2.90139 15.8517
rtibia 27.2761
rfoot -12.5858 -7.11796
rtoes -13.4375
lfemur -16.0706 8.82042 -22.377
ltibia 10.2703
lfoot -6.66926 -0.309917
ltoes -10.0034
304
root 21.362 18.5687 5.03805 -121.28 -88.4347 136.552
lowerback 10.9273 1.30989 1.12659
upperback 5.80444 1.59622 3.08892
thorax -0.132518 0.659815 2.3947
lowerneck -21.43 -3.17015 -11.1768
upperneck 30.0173 -2.69657 5.26107
head 14.0882 -1.86754 3.5118
rclavicle -5.56597e-015 -2.46493e-014
rhumerus 26.6521 27.0519 -47.4059
rradius 72.3254
rwrist 22.999
rhand -41.9981 40.1055
rfingers 7.12502
rthumb -14.8933 10.6609
lclavicle -5.56597e-015 -2.46493e-014
lhumerus 32.4137 -29.614 52.983
lradius 62.2802
lwrist -34.5233
lhand -35.4214 57.1177
lfingers 7.12502
lthumb -8.55142 86.9245
rfemur -29.9849 -3.16779 16.5307
rtibia 27.291
rfoot -12.7331 -6.63115
rtoes -12.8709
lfemur -16.221 8.68952 -21.711
ltibia 10.5035
lfoot -6.75194 -0.166152
ltoes -11.4095
305
root 21.3579 18.5741 5.00525 -115.361 -88.7155 130.735
lowerback 10.898 1.24754 1.26929
upperback 5.76936 1.52975 3.09104
thorax -0.146959 0.630633 2.32385
lowerneck -21.338 -3.14482 -10.9101
upperneck 30.0363 -2.77289 5.24829
head 14.0775 -1.87342 3.44742
rclavicle -2.14687e-014 -4.53229e-014
rhumerus 26.6986 27.0586 -47.3843
rradius 72.5867
rwrist 22.2618
rhand -41.5708 39.9887
rfingers 7.12502
rthumb -14.4817 10.5141
lclavicle -2.14687e-014 -4.53229e-014
lhumerus 32.2646 -29.397 53.3122
lradius 62.3269
lwrist -34.3763
lhand -35.8035 56.5854
lfingers 7.12502
lthumb -8.92019 86.3768
rfemur -30.1089 -3.07288 16.6579
rtibia 27.3202
rfoot -12.7773 -6.67543
rtoes -11.0111
lfemur -16.4269 8.50997 -21.4011
ltibia 10.7002
lfoot -6.83735 -0.323124
ltoes -12.8405
306
root 21.3569 18.5793 4.98318 -113.077 -89.1295 128.673
lowerback 10.8206 1.20991 1.72312
upperback 5.69575 1.52502 3.10029
thorax -0.168693 0.638649 2.079
lowerneck -21.4168 -3.12876 -10.7603
upperneck 30.1507 -2.85767 5.40812
head 14.1509 -1.87302 3.47557
rclavicle -1.98785e-014 -3.57812e-014
rhumerus 26.695 26.7525 -47.7603
rradius 72.5517
rwrist 21.9567
rhand -41.2612 39.4723
rfingers 7.12502
rthumb -14.1833 9.97649
lclavicle -1.98785e-014 -3.57812e-014
lhumerus 32.3039 -29.2828 53.5262
lradius 62.3072
lwrist -34.0182
lhand -36.1523 56.3375
lfingers 7.12502
lthumb -9.25673 86.1143
rfemur -30.4666 -2.92064 16.9977
rtibia 27.5675
rfoot -12.8865 -6.84509
rtoes -9.38185
lfemur -16.3787 8.02191 -20.8883
ltibia 10.1286
lfoot -6.6241 -0.0382728
ltoes -9.40064
307
root 21.3465 18.5784 4.95054 -103.502 -89.2534 119.125
lowerback 10.8618 1.27821 1.62387
upperback 5.69821 1.60687 3.21578
thorax -0.196509 0.674947 2.2454
lowerneck -21.4687 -3.22202 -10.8986
upperneck 30.1445 -2.96739 5.51255
head 14.1763 -1.91948 3.52238
rclavicle 4.77083e-015 -1.59028e-014
rhumerus 26.5991 26.5152 -47.7478
rradius 72.6224
rwrist 21.0432
rhand -41.2683 39.1966
rfingers 7.12502
rthumb -14.1901 9.70129
lclavicle 4.77083e-015 -1.59028e-014
lhumerus 32.3331 -29.1412 54.032
lradius 62.2092
lwrist -33.5176
lhand -36.3555 56.0608
lfingers 7.12502
lthumb -9.45285 85.8288
rfemur -30.5449 -2.81024 17.1119
rtibia 27.8413
rfoot -13.089 -7.09254
rtoes -9.32053
lfemur -16.0546 7.92115 -20.7067
ltibia 9.48846
lfoot -6.53452 -0.0395203
ltoes -5.45861
308
root 21.3285 18.5678 4.89826 -72.5857 -87.6939 87.9098
lowerback 11.0488 1.25762 -0.283501
upperback 5.81952 1.40855 3.0169
thorax -0.209819 0.543521 3.13457
lowerneck -21.4255 -3.38679 -10.9334
upperneck 30.0134 -3.1648 5.44027
head 14.1317 -2.01225 3.45868
rclavicle 3.18055e-015 -1.27222e-014
rhumerus 26.3434 26.2893 -47.6375
rradius 72.9319
rwrist 20.0608
rhand -40.784 39.9936
rfingers 7.12502
rthumb -13.7234 10.4661
lclavicle 3.18055e-015 -1.27222e-014
lhumerus 32.3311 -28.9048 54.6115
lradius 62.108
lwrist -33.1435
lhand -36.3106 55.5372
lfingers 7.12502
lthumb -9.40948 85.3072
rfemur -30.2827 -3.36898 15.4894
rtibia 28.2365
rfoot -13.2716 -7.4026
rtoes -10.1493
lfemur -15.4263 7.10024 -22.1053
ltibia 8.8686
lfoot -6.04556 -0.181297
ltoes -8.37002
